<svg xmlns="http://www.w3.org/2000/svg" viewBox="0 0 300 116.24"><defs><style>.cls-1{fill:#ed747e;}.cls-2{fill:#ec8692;}.cls-3{fill:#f2aab3;}.cls-4{fill:#fff;}</style></defs><title>waves</title><g id="Layer_4" data-name="Layer 4"><path class="cls-1" d="M0,65.72s38.34,28.34,100.13,12c0,0,24.51-3.57,92.42-29.61,0,0,44.6-26.56,107.45-7.41V71.26L140,102.74,25.83,108.62,0,96.36Z" transform="translate(0 -33.76)"/></g><g id="Layer_5" data-name="Layer 5"><path class="cls-2" d="M75.36,87.43l60.26-18.9s-49,16.6-74.3,13.53c0,0-36.85,0-61.32-16.08V76.7S25.32,91.26,75.36,87.43Z" transform="translate(0 -33.76)"/></g><g id="middle"><path class="cls-3" d="M0,76.19s23.63,18,90.94,11c0,0,37.27-5.11,67.15-13.53,0,0,52.59-17.76,107.23-11.69,0,0,25.45,3.09,34.68,9.31v55H0Z" transform="translate(0 -33.76)"/></g><g id="white-wave"><path class="cls-4" d="M0,84.7s26.09,22.81,90.43,14c0,0,25.87-1.19,72.17-20.26,0,0,82.46-31.66,137.4-7.14V150H0Z" transform="translate(0 -33.76)"/></g></svg>